<svg width="384" height="368" viewBox="0 0 384 368" fill="none" xmlns="http://www.w3.org/2000/svg">
<rect y="0.359039" width="383.672" height="367.641" rx="17.0996" fill="url(#paint0_linear_384_1248)"/>
<path d="M72.5878 173.49V194.668H68.3403V185.657H59.2687V194.668H55.0211V173.49H59.2687V182.198H68.3403V173.49H72.5878ZM76.2831 186.203C76.2831 184.504 76.6169 182.997 77.2843 181.682C77.972 180.367 78.8923 179.356 80.0453 178.648C81.2184 177.94 82.523 177.586 83.9591 177.586C85.2131 177.586 86.3054 177.839 87.2358 178.345C88.1864 178.85 88.9449 179.488 89.5113 180.256V177.859H93.7892V194.668H89.5113V192.21C88.9651 192.999 88.2066 193.656 87.2358 194.182C86.2851 194.688 85.1828 194.941 83.9287 194.941C82.5129 194.941 81.2184 194.577 80.0453 193.848C78.8923 193.12 77.972 192.099 77.2843 190.784C76.6169 189.449 76.2831 187.922 76.2831 186.203ZM89.5113 186.263C89.5113 185.232 89.309 184.352 88.9045 183.624C88.4999 182.876 87.9538 182.309 87.2661 181.925C86.5784 181.52 85.8401 181.318 85.0513 181.318C84.2625 181.318 83.5343 181.51 82.8668 181.895C82.1994 182.279 81.6533 182.845 81.2285 183.594C80.824 184.322 80.6217 185.191 80.6217 186.203C80.6217 187.214 80.824 188.104 81.2285 188.873C81.6533 189.621 82.1994 190.198 82.8668 190.602C83.5545 191.007 84.2827 191.209 85.0513 191.209C85.8401 191.209 86.5784 191.017 87.2661 190.632C87.9538 190.228 88.4999 189.662 88.9045 188.933C89.309 188.185 89.5113 187.295 89.5113 186.263ZM105.553 190.754L109.8 177.859H114.321L108.101 194.668H102.944L96.7544 177.859H101.305L105.553 190.754ZM132.939 185.899C132.939 186.506 132.898 187.052 132.817 187.538H120.53C120.631 188.751 121.055 189.702 121.804 190.39C122.552 191.077 123.473 191.421 124.565 191.421C126.142 191.421 127.265 190.744 127.933 189.388H132.514C132.028 191.007 131.098 192.342 129.723 193.393C128.347 194.425 126.658 194.941 124.656 194.941C123.038 194.941 121.581 194.587 120.287 193.879C119.013 193.151 118.011 192.129 117.283 190.814C116.575 189.5 116.221 187.983 116.221 186.263C116.221 184.524 116.575 182.997 117.283 181.682C117.991 180.367 118.982 179.356 120.257 178.648C121.531 177.94 122.997 177.586 124.656 177.586C126.254 177.586 127.68 177.93 128.934 178.618C130.208 179.306 131.189 180.287 131.877 181.561C132.585 182.815 132.939 184.261 132.939 185.899ZM128.539 184.686C128.519 183.594 128.125 182.724 127.356 182.077C126.587 181.409 125.647 181.075 124.534 181.075C123.483 181.075 122.593 181.399 121.865 182.046C121.157 182.673 120.722 183.553 120.56 184.686H128.539ZM143.39 186.203C143.39 184.504 143.723 182.997 144.391 181.682C145.079 180.367 145.999 179.356 147.152 178.648C148.325 177.94 149.63 177.586 151.066 177.586C152.32 177.586 153.412 177.839 154.342 178.345C155.293 178.85 156.051 179.488 156.618 180.256V177.859H160.896V194.668H156.618V192.21C156.072 192.999 155.313 193.656 154.342 194.182C153.392 194.688 152.289 194.941 151.035 194.941C149.619 194.941 148.325 194.577 147.152 193.848C145.999 193.12 145.079 192.099 144.391 190.784C143.723 189.449 143.39 187.922 143.39 186.203ZM156.618 186.263C156.618 185.232 156.416 184.352 156.011 183.624C155.606 182.876 155.06 182.309 154.373 181.925C153.685 181.52 152.947 181.318 152.158 181.318C151.369 181.318 150.641 181.51 149.973 181.895C149.306 182.279 148.76 182.845 148.335 183.594C147.931 184.322 147.728 185.191 147.728 186.203C147.728 187.214 147.931 188.104 148.335 188.873C148.76 189.621 149.306 190.198 149.973 190.602C150.661 191.007 151.389 191.209 152.158 191.209C152.947 191.209 153.685 191.017 154.373 190.632C155.06 190.228 155.606 189.662 156.011 188.933C156.416 188.185 156.618 187.295 156.618 186.263ZM189.264 198.399L186.048 194.546C185.158 194.769 184.248 194.88 183.317 194.88C181.335 194.88 179.515 194.415 177.856 193.484C176.197 192.554 174.883 191.27 173.912 189.631C172.941 187.973 172.456 186.102 172.456 184.018C172.456 181.955 172.941 180.105 173.912 178.466C174.883 176.808 176.197 175.513 177.856 174.583C179.515 173.652 181.335 173.187 183.317 173.187C185.32 173.187 187.14 173.652 188.778 174.583C190.437 175.513 191.742 176.808 192.692 178.466C193.663 180.105 194.149 181.955 194.149 184.018C194.149 185.899 193.744 187.619 192.935 189.176C192.146 190.713 191.064 191.967 189.689 192.938L194.543 198.399H189.264ZM176.825 184.018C176.825 185.434 177.098 186.678 177.644 187.75C178.19 188.822 178.948 189.651 179.919 190.238C180.91 190.804 182.043 191.088 183.317 191.088C184.591 191.088 185.714 190.804 186.685 190.238C187.656 189.651 188.414 188.822 188.96 187.75C189.507 186.678 189.78 185.434 189.78 184.018C189.78 182.602 189.507 181.369 188.96 180.317C188.414 179.245 187.656 178.426 186.685 177.859C185.714 177.293 184.591 177.01 183.317 177.01C182.043 177.01 180.91 177.293 179.919 177.859C178.948 178.426 178.19 179.245 177.644 180.317C177.098 181.369 176.825 182.602 176.825 184.018ZM213.842 177.859V194.668H209.564V192.544C209.018 193.272 208.3 193.848 207.41 194.273C206.541 194.678 205.59 194.88 204.558 194.88C203.244 194.88 202.081 194.607 201.069 194.061C200.058 193.494 199.259 192.675 198.672 191.603C198.106 190.511 197.823 189.217 197.823 187.72V177.859H202.071V187.113C202.071 188.448 202.404 189.48 203.072 190.208C203.739 190.916 204.649 191.27 205.802 191.27C206.975 191.27 207.896 190.916 208.563 190.208C209.231 189.48 209.564 188.448 209.564 187.113V177.859H213.842ZM234.265 185.899C234.265 186.506 234.225 187.052 234.144 187.538H221.856C221.957 188.751 222.382 189.702 223.13 190.39C223.879 191.077 224.799 191.421 225.891 191.421C227.469 191.421 228.591 190.744 229.259 189.388H233.84C233.355 191.007 232.424 192.342 231.049 193.393C229.674 194.425 227.985 194.941 225.982 194.941C224.364 194.941 222.908 194.587 221.613 193.879C220.339 193.151 219.338 192.129 218.61 190.814C217.902 189.5 217.548 187.983 217.548 186.263C217.548 184.524 217.902 182.997 218.61 181.682C219.318 180.367 220.309 179.356 221.583 178.648C222.857 177.94 224.324 177.586 225.982 177.586C227.58 177.586 229.006 177.93 230.26 178.618C231.534 179.306 232.515 180.287 233.203 181.561C233.911 182.815 234.265 184.261 234.265 185.899ZM229.866 184.686C229.846 183.594 229.451 182.724 228.682 182.077C227.914 181.409 226.973 181.075 225.861 181.075C224.809 181.075 223.919 181.399 223.191 182.046C222.483 182.673 222.048 183.553 221.886 184.686H229.866ZM244.404 194.941C243.029 194.941 241.795 194.698 240.703 194.213C239.61 193.707 238.741 193.029 238.093 192.18C237.466 191.33 237.123 190.39 237.062 189.358H241.34C241.421 190.005 241.734 190.541 242.28 190.966C242.847 191.391 243.545 191.603 244.374 191.603C245.183 191.603 245.81 191.441 246.255 191.118C246.72 190.794 246.953 190.38 246.953 189.874C246.953 189.328 246.67 188.923 246.103 188.66C245.557 188.377 244.677 188.074 243.464 187.75C242.21 187.447 241.178 187.133 240.369 186.81C239.58 186.486 238.892 185.99 238.306 185.323C237.74 184.655 237.456 183.755 237.456 182.623C237.456 181.692 237.719 180.843 238.245 180.074C238.791 179.306 239.56 178.699 240.551 178.254C241.562 177.809 242.746 177.586 244.101 177.586C246.103 177.586 247.701 178.092 248.894 179.103C250.088 180.094 250.745 181.439 250.867 183.139H246.801C246.74 182.471 246.457 181.945 245.951 181.561C245.466 181.156 244.809 180.954 243.979 180.954C243.211 180.954 242.614 181.096 242.189 181.379C241.785 181.662 241.583 182.056 241.583 182.562C241.583 183.128 241.866 183.563 242.432 183.867C242.998 184.15 243.878 184.443 245.072 184.747C246.285 185.05 247.286 185.363 248.075 185.687C248.864 186.011 249.542 186.516 250.108 187.204C250.695 187.872 250.998 188.761 251.018 189.874C251.018 190.845 250.745 191.715 250.199 192.483C249.673 193.252 248.905 193.859 247.893 194.304C246.902 194.728 245.739 194.941 244.404 194.941ZM260.057 181.348V189.48C260.057 190.046 260.189 190.46 260.452 190.723C260.735 190.966 261.2 191.088 261.847 191.088H263.819V194.668H261.149C257.569 194.668 255.779 192.928 255.779 189.449V181.348H253.777V177.859H255.779V173.703H260.057V177.859H263.819V181.348H260.057ZM269.635 175.857C268.887 175.857 268.26 175.624 267.754 175.159C267.269 174.674 267.026 174.077 267.026 173.369C267.026 172.661 267.269 172.075 267.754 171.609C268.26 171.124 268.887 170.881 269.635 170.881C270.384 170.881 271.001 171.124 271.486 171.609C271.992 172.075 272.244 172.661 272.244 173.369C272.244 174.077 271.992 174.674 271.486 175.159C271.001 175.624 270.384 175.857 269.635 175.857ZM271.729 177.859V194.668H267.481V177.859H271.729ZM283.996 194.941C282.378 194.941 280.921 194.587 279.627 193.879C278.332 193.151 277.311 192.129 276.562 190.814C275.834 189.5 275.47 187.983 275.47 186.263C275.47 184.544 275.844 183.027 276.593 181.713C277.361 180.398 278.403 179.386 279.718 178.679C281.032 177.95 282.499 177.586 284.117 177.586C285.735 177.586 287.202 177.95 288.516 178.679C289.831 179.386 290.863 180.398 291.611 181.713C292.38 183.027 292.764 184.544 292.764 186.263C292.764 187.983 292.369 189.5 291.581 190.814C290.812 192.129 289.76 193.151 288.425 193.879C287.111 194.587 285.634 194.941 283.996 194.941ZM283.996 191.239C284.764 191.239 285.482 191.057 286.15 190.693C286.837 190.309 287.384 189.742 287.788 188.994C288.193 188.246 288.395 187.335 288.395 186.263C288.395 184.666 287.97 183.442 287.121 182.592C286.291 181.723 285.27 181.288 284.056 181.288C282.843 181.288 281.821 181.723 280.992 182.592C280.183 183.442 279.778 184.666 279.778 186.263C279.778 187.861 280.173 189.095 280.962 189.965C281.771 190.814 282.782 191.239 283.996 191.239ZM305.801 177.617C307.803 177.617 309.421 178.254 310.655 179.528C311.889 180.782 312.506 182.542 312.506 184.807V194.668H308.258V185.384C308.258 184.049 307.924 183.027 307.257 182.319C306.589 181.591 305.679 181.227 304.526 181.227C303.353 181.227 302.423 181.591 301.735 182.319C301.068 183.027 300.734 184.049 300.734 185.384V194.668H296.486V177.859H300.734V179.953C301.3 179.225 302.018 178.658 302.888 178.254C303.778 177.829 304.749 177.617 305.801 177.617ZM323.068 172.762C325.172 172.762 326.86 173.339 328.135 174.492C329.429 175.624 330.076 177.192 330.076 179.194C330.076 181.177 329.439 182.694 328.165 183.745C326.891 184.777 325.202 185.293 323.098 185.293L322.977 187.629H319.245L319.093 182.471H320.459C322.218 182.471 323.574 182.238 324.524 181.773C325.475 181.308 325.95 180.458 325.95 179.225C325.95 178.335 325.687 177.627 325.161 177.101C324.656 176.575 323.958 176.312 323.068 176.312C322.138 176.312 321.409 176.565 320.884 177.071C320.378 177.576 320.125 178.274 320.125 179.164H316.12C316.1 177.93 316.363 176.828 316.909 175.857C317.455 174.886 318.254 174.128 319.306 173.581C320.378 173.035 321.632 172.762 323.068 172.762ZM321.096 194.88C320.327 194.88 319.69 194.647 319.184 194.182C318.699 193.697 318.456 193.1 318.456 192.392C318.456 191.684 318.699 191.098 319.184 190.632C319.69 190.147 320.327 189.904 321.096 189.904C321.844 189.904 322.461 190.147 322.947 190.632C323.432 191.098 323.675 191.684 323.675 192.392C323.675 193.1 323.432 193.697 322.947 194.182C322.461 194.647 321.844 194.88 321.096 194.88Z" fill="white"/>
<g clip-path="url(#clip0_384_1248)">
<path d="M235.32 103.227L227.197 86.0018C227.217 85.4867 227.237 84.9715 227.237 84.4515C227.237 62.8002 209.68 45.2454 188.028 45.2454C180.9 45.2454 174.22 47.1475 168.462 50.4692C168.475 50.5714 168.495 50.7068 168.521 50.8737C168.587 51.3078 168.693 51.9517 168.838 52.7739C169.134 54.4199 169.601 56.7809 170.283 59.6008C171.414 64.2748 173.144 70.2115 175.645 76.2344C177.343 75.6336 179.17 75.3034 181.062 75.3034C184.414 75.3034 187.554 76.3268 190.139 78.077C192.73 79.827 194.785 82.3003 196.019 85.2175C196.843 87.1608 197.296 89.3038 197.295 91.5375C197.297 94.889 196.271 98.0276 194.521 100.616C192.771 103.205 190.298 105.259 187.382 106.494C185.438 107.316 183.295 107.772 181.062 107.772C177.711 107.772 174.571 106.746 171.984 104.996C169.395 103.246 167.339 100.775 166.104 97.8575C165.282 95.9126 164.828 93.7712 164.83 91.5375C164.827 88.186 165.853 85.0457 167.603 82.4588C168.404 81.2733 169.357 80.2018 170.435 79.2674C167.603 72.6024 165.705 66.0958 164.47 61.0075C163.811 58.2799 163.344 55.9621 163.03 54.2468C154.349 61.4385 148.818 72.2986 148.818 84.45C148.818 96.6294 154.367 107.509 163.078 114.703V128.559C163.078 129.911 163.884 131.135 165.129 131.662L197.602 145.437C198.642 145.878 199.834 145.771 200.775 145.149C201.719 144.523 202.287 143.468 202.287 142.34V130.595C202.287 128.738 203.795 127.226 205.652 127.226H222.284C224.146 127.226 225.652 125.716 225.652 123.859V113.732C225.652 112.442 226.39 111.265 227.549 110.701L233.745 107.693C235.406 106.883 236.109 104.894 235.32 103.227Z" fill="white"/>
<path d="M177.072 100.986C178.297 101.505 179.64 101.79 181.063 101.792C183.196 101.79 185.154 101.148 186.794 100.042C188.433 98.9357 189.737 97.364 190.513 95.5279C191.03 94.3027 191.316 92.9606 191.316 91.5375C191.316 89.4027 190.673 87.4465 189.567 85.8068C188.461 84.1674 186.889 82.8648 185.054 82.087C183.829 81.5704 182.486 81.2831 181.063 81.2831C178.93 81.2847 176.972 81.9269 175.331 83.0331C173.693 84.1394 172.389 85.711 171.613 87.5468C171.096 88.7719 170.81 90.1124 170.809 91.5373C170.81 93.6721 171.453 95.6285 172.557 97.2679C173.663 98.906 175.235 100.21 177.072 100.986Z" fill="white"/>
</g>
<defs>
<linearGradient id="paint0_linear_384_1248" x1="0" y1="0.359039" x2="364.969" y2="368" gradientUnits="userSpaceOnUse">
<stop stop-color="#E90303"/>
<stop offset="0.668274" stop-color="#202F5A"/>
</linearGradient>
<clipPath id="clip0_384_1248">
<rect width="100.46" height="100.46" fill="white" transform="translate(142 45.2454)"/>
</clipPath>
</defs>
</svg>
