<svg width="22" height="21" viewBox="0 0 22 21" fill="none" xmlns="http://www.w3.org/2000/svg">
<circle cx="11.3944" cy="10.4958" r="10.0191" transform="rotate(-0.221648 11.3944 10.4958)" stroke="black" stroke-width="0.795166"/>
<path d="M17.6764 14.169C17.6772 14.382 17.6302 14.601 17.5294 14.8143C17.4286 15.0277 17.2978 15.2293 17.1251 15.4193C16.8333 15.7398 16.5112 15.9717 16.147 16.121C15.7887 16.2703 15.4003 16.3486 14.9816 16.3502C14.3716 16.3526 13.7192 16.2131 13.0303 15.9259C12.3414 15.6387 11.6521 15.2509 10.9684 14.7625C10.2786 14.2683 9.62461 13.7207 9.00024 13.1138C8.38183 12.501 7.82311 11.8583 7.32408 11.1859C6.83103 10.5134 6.43367 9.84063 6.14399 9.17331C5.85428 8.50007 5.70822 7.85586 5.70582 7.24068C5.70424 6.83845 5.77451 6.45368 5.91665 6.09822C6.05878 5.73684 6.28475 5.40472 6.60056 5.10775C6.98186 4.73363 7.39979 4.54865 7.84236 4.54696C8.00981 4.54632 8.17741 4.58117 8.3272 4.65158C8.48298 4.72197 8.62095 4.82792 8.7292 4.9813L10.1243 6.91026C10.2325 7.05773 10.3108 7.19348 10.3651 7.32341C10.4194 7.44743 10.4498 7.57153 10.4503 7.68392C10.4508 7.82589 10.4095 7.96801 10.3263 8.10438C10.2491 8.24073 10.136 8.38313 9.99303 8.52564L9.54033 8.99468C9.4748 9.06 9.4452 9.13701 9.44557 9.23166C9.44575 9.27898 9.4519 9.32036 9.46404 9.36764C9.48217 9.41489 9.50025 9.45031 9.51235 9.48576C9.62077 9.68055 9.80716 9.93419 10.0715 10.2408C10.3418 10.5473 10.6301 10.8597 10.9424 11.1721C11.2665 11.4843 11.5787 11.773 11.8967 12.038C12.2087 12.297 12.4665 12.4735 12.6703 12.5792C12.7003 12.5909 12.7362 12.6085 12.7781 12.6261C12.8261 12.6437 12.8739 12.6494 12.9277 12.6492C13.0294 12.6488 13.107 12.613 13.1726 12.5477L13.6254 12.1023C13.7743 11.9539 13.9174 11.8409 14.0547 11.7694C14.1919 11.6861 14.3293 11.6442 14.4788 11.6436C14.5924 11.6432 14.7121 11.6664 14.8439 11.7191C14.9757 11.7718 15.1136 11.8482 15.2635 11.9482L17.2485 13.3307C17.4044 13.4366 17.5125 13.5604 17.5789 13.708C17.6393 13.8556 17.6758 14.0034 17.6764 14.169Z" stroke="black" stroke-width="0.887289" stroke-miterlimit="10"/>
</svg>
