<svg width="27" height="27" viewBox="0 0 27 27" fill="none" xmlns="http://www.w3.org/2000/svg">
<path d="M2.91895 3.40936L3.20869 3.50594C4.65248 3.98721 5.37438 4.22784 5.78728 4.80072C6.20019 5.37359 6.20019 6.13454 6.20019 7.65644V10.5187C6.20019 13.6123 6.20019 15.1591 7.16125 16.1202C8.12231 17.0812 9.6691 17.0812 12.7627 17.0812H21.5127" stroke="white" stroke-width="1.64062" stroke-linecap="round"/>
<path d="M8.93555 19.8156C9.84164 19.8156 10.5762 20.5502 10.5762 21.4562C10.5762 22.3623 9.84164 23.0969 8.93555 23.0969C8.02945 23.0969 7.29492 22.3623 7.29492 21.4562C7.29492 20.5502 8.02945 19.8156 8.93555 19.8156Z" stroke="white" stroke-width="1.64062"/>
<path d="M18.7783 19.8157C19.6844 19.8157 20.4189 20.5502 20.4189 21.4563C20.4189 22.3624 19.6844 23.097 18.7783 23.097C17.8723 23.097 17.1377 22.3624 17.1377 21.4563C17.1377 20.5502 17.8723 19.8157 18.7783 19.8157Z" stroke="white" stroke-width="1.64062"/>
<path d="M6.2002 6.69061H18.7241C20.9717 6.69061 22.0954 6.69061 22.5818 7.42808C23.0681 8.16557 22.6254 9.19851 21.74 11.2645L21.2712 12.3582C20.8579 13.3227 20.6511 13.8049 20.2402 14.0759C19.8293 14.3469 19.3046 14.3469 18.2553 14.3469H6.2002" stroke="white" stroke-width="1.64062"/>
</svg>
