<svg width="22" height="22" viewBox="0 0 22 22" fill="none" xmlns="http://www.w3.org/2000/svg">
<circle cx="11.3709" cy="11.3973" r="10.0191" transform="rotate(-0.221648 11.3709 11.3973)" stroke="black" stroke-width="0.795166"/>
<path d="M18.2219 6.80676C17.8453 6.43627 17.3203 6.20666 16.7469 6.20905L6.5593 6.24761C5.4089 6.25238 4.48063 7.17749 4.48471 8.31541L4.50943 14.5664C4.51435 15.7043 5.4499 16.6224 6.6003 16.6185L11.6941 16.5992L16.7879 16.5799C17.3613 16.5779 17.8845 16.3444 18.2581 15.9711C18.6326 15.5986 18.8647 15.0793 18.8625 14.5121L18.8378 8.26109C18.8355 7.69389 18.5993 7.1764 18.2219 6.80676ZM6.56347 7.30251L16.7511 7.26395C16.995 7.26325 17.213 7.34917 17.3887 7.4892L11.6751 11.7875L5.92759 7.53258C6.10222 7.39119 6.31955 7.30363 6.56347 7.30251ZM5.57587 14.5624L5.55115 8.31137C5.55096 8.14982 5.59158 8.00051 5.65855 7.86591L9.64829 11.4556L5.67589 14.9871C5.61413 14.8583 5.57692 14.7159 5.57587 14.5624ZM16.7837 15.525L6.59613 15.5636C6.36615 15.5643 6.15904 15.4884 5.98877 15.3629L10.1977 11.9688L10.8398 12.5684C11.3156 12.9973 12.0442 12.9945 12.5165 12.5621L13.1538 11.9577L17.3893 15.3198C17.22 15.4465 17.0135 15.524 16.7837 15.525ZM17.796 14.5162C17.7962 14.6696 17.7601 14.8124 17.6994 14.9416L13.6992 11.4403L17.6602 7.82051C17.7284 7.95458 17.7702 8.10341 17.7713 8.26515L17.796 14.5162Z" fill="black"/>
</svg>
