<svg width="21" height="21" viewBox="0 0 21 21" fill="none" xmlns="http://www.w3.org/2000/svg">
<circle cx="10.355" cy="10.355" r="9.95973" stroke="white" stroke-width="0.790455"/>
<path d="M11.1123 4.28918C11.9452 4.2892 12.5359 4.3486 12.918 4.40833C13.1089 4.43817 13.2479 4.46805 13.3389 4.49036C13.3843 4.50151 13.4184 4.51125 13.4404 4.5177C13.4447 4.51896 13.4487 4.5196 13.4521 4.52063L13.1299 6.43079C13.1138 6.42642 13.0908 6.42034 13.0625 6.41321C13.0026 6.39814 12.9176 6.37759 12.8164 6.35754C12.6139 6.31742 12.3456 6.27747 12.0859 6.27747C11.8267 6.27752 11.5782 6.32394 11.3936 6.43762C11.2072 6.55254 11.0869 6.73574 11.0869 7.00208V8.52063H13.1934L13.0527 10.3849H11.0869V17.0304H8.6582V10.3849H7.33496V8.52063H8.6582V7.21204C8.6582 6.92978 8.66215 6.57114 8.7168 6.21594C8.77148 5.86067 8.87698 5.51077 9.07812 5.24329C9.29367 4.95838 9.54827 4.72002 9.875 4.55286C10.2019 4.38569 10.6034 4.28918 11.1123 4.28918Z" fill="white" stroke="white" stroke-width="0.0499665"/>
</svg>
