<svg width="21" height="21" viewBox="0 0 21 21" fill="none" xmlns="http://www.w3.org/2000/svg">
<circle cx="10.355" cy="10.355" r="9.95973" stroke="white" stroke-width="0.790455"/>
<path d="M6.875 8.41272V15.8141H4.59473V8.41272H6.875Z" fill="white" stroke="white" stroke-width="0.0466358"/>
<path d="M5.68652 4.89639C6.1102 4.89649 6.45019 5.03361 6.68652 5.25967C6.92282 5.48575 7.05713 5.80227 7.06641 6.16495L7.06152 6.29581C7.03429 6.59589 6.90571 6.86348 6.69531 7.06339C6.45478 7.29182 6.10495 7.4335 5.67188 7.4335H5.65332C4.82134 7.43346 4.2872 6.87396 4.28711 6.16495C4.28711 5.80274 4.42558 5.48592 4.66895 5.25967C4.91241 5.03336 5.26255 4.89639 5.68652 4.89639Z" fill="white" stroke="white" stroke-width="0.0466358"/>
<path d="M13.2549 8.34274C14.0776 8.34274 14.8091 8.60945 15.335 9.16013C15.8607 9.71078 16.1835 10.548 16.1836 11.6953V15.8134H13.5908V11.9853C13.5908 11.4792 13.4877 11.049 13.2676 10.7451C13.0465 10.44 12.7093 10.2637 12.248 10.2636C11.5403 10.2636 11.1461 10.7396 10.9668 11.1924C10.9327 11.2752 10.919 11.3742 10.9131 11.4795C10.9072 11.5846 10.9092 11.699 10.9092 11.8125V15.8134H8.33984C8.3399 15.8008 8.33974 15.7831 8.33984 15.7607C8.34007 15.7106 8.34041 15.6367 8.34082 15.5429C8.34165 15.3551 8.34345 15.0856 8.34473 14.7607C8.34728 14.1109 8.34952 13.2379 8.35156 12.3457C8.35554 10.6046 8.35506 8.78819 8.33984 8.41306H10.9092V9.55954L10.9551 9.56638C11.0299 9.31704 11.2725 9.01062 11.6641 8.76657C12.0549 8.52306 12.5926 8.34279 13.2549 8.34274Z" fill="white" stroke="white" stroke-width="0.0466358"/>
</svg>
