<svg width="70" height="66" viewBox="0 0 70 66" fill="none" xmlns="http://www.w3.org/2000/svg">
<path d="M32.3519 27.9645C38.7071 27.9645 43.859 23.0988 43.859 17.0966C43.859 11.0945 38.7071 6.22876 32.3519 6.22876C25.9967 6.22876 20.8447 11.0945 20.8447 17.0966C20.8447 23.0988 25.9967 27.9645 32.3519 27.9645Z" stroke="#202F5A" stroke-width="3.25111"/>
<path d="M55.3593 49.7001C55.3665 49.254 55.3665 48.8008 55.3665 48.3416C55.3665 41.5892 45.0627 36.1153 32.3522 36.1153C19.6417 36.1153 9.33789 41.5892 9.33789 48.3416C9.33789 55.0941 9.33789 60.568 32.3522 60.568C38.7703 60.568 43.3985 60.1422 46.7361 59.3818" stroke="#202F5A" stroke-width="3.25111" stroke-linecap="round"/>
</svg>
