<svg width="79" height="79" viewBox="0 0 79 79" fill="none" xmlns="http://www.w3.org/2000/svg">
<path d="M23.4877 11.4765C28.2288 8.73397 33.7334 7.16431 39.6044 7.16431C57.4062 7.16431 71.8377 21.5956 71.8377 39.3976C71.8377 57.1994 57.4062 71.6309 39.6044 71.6309C21.8024 71.6309 7.37109 57.1994 7.37109 39.3976C7.37109 33.5266 8.94076 28.022 11.6833 23.281" stroke="black" stroke-width="4.83499" stroke-linecap="round"/>
<path d="M48.7201 62.1901C47.523 65.1833 46.1015 67.5572 44.5372 69.1773C42.9729 70.797 41.2965 71.6309 39.6033 71.6309C37.9101 71.6309 36.2336 70.797 34.6693 69.1773C33.1049 67.5572 31.6836 65.1833 30.4863 62.1901C29.2891 59.1969 28.3394 55.6435 27.6914 51.7326C27.0434 47.8221 26.71 43.6305 26.71 39.3976C26.71 35.1647 27.0434 30.9732 27.6914 27.0625C28.3394 23.1517 29.2891 19.5984 30.4863 16.6052C31.6836 13.6121 33.1049 11.2378 34.6693 9.61794C36.2336 7.99805 37.9101 7.16431 39.6033 7.16431C41.2965 7.16431 42.9729 7.99805 44.5372 9.6179C46.1015 11.2378 47.523 13.6121 48.7201 16.6052C49.9176 19.5984 50.8672 23.1517 51.5151 27.0625C52.163 30.9732 52.4966 35.1647 52.4966 39.3976C52.4966 43.6305 52.163 47.8221 51.5151 51.7326" stroke="black" stroke-width="4.83499" stroke-linecap="round"/>
<path d="M7.37109 39.3977H33.1577M71.8377 39.3977H46.051" stroke="black" stroke-width="4.83499" stroke-linecap="round"/>
</svg>
