<svg width="78" height="79" viewBox="0 0 78 79" fill="none" xmlns="http://www.w3.org/2000/svg">
<path d="M41.7654 21.5684C45.6507 21.5684 48.8003 18.4187 48.8003 14.5335C48.8003 10.6482 45.6507 7.49854 41.7654 7.49854C37.8801 7.49854 34.7305 10.6482 34.7305 14.5335C34.7305 18.4187 37.8801 21.5684 41.7654 21.5684Z" stroke="black" stroke-width="3.62625"/>
<path d="M64.865 45.949C68.7503 45.949 71.8999 42.7993 71.8999 38.9141C71.8999 35.0288 68.7503 31.8792 64.865 31.8792C60.9797 31.8792 57.8301 35.0288 57.8301 38.9141C57.8301 42.7993 60.9797 45.949 64.865 45.949Z" stroke="black" stroke-width="3.62625"/>
<path d="M41.7654 68.8789C45.6507 68.8789 48.8003 65.7293 48.8003 61.844C48.8003 57.9587 45.6507 54.8091 41.7654 54.8091C37.8801 54.8091 34.7305 57.9587 34.7305 61.844C34.7305 65.7293 37.8801 68.8789 41.7654 68.8789Z" stroke="black" stroke-width="3.62625"/>
<path d="M18.363 58.5562C22.2483 58.5562 25.398 55.4065 25.398 51.5212C25.398 47.636 22.2483 44.4863 18.363 44.4863C14.4778 44.4863 11.3281 47.636 11.3281 51.5212C11.3281 55.4065 14.4778 58.5562 18.363 58.5562Z" stroke="black" stroke-width="3.62625"/>
<path d="M18.363 31.0452C22.2483 31.0452 25.398 27.8955 25.398 24.0103C25.398 20.125 22.2483 16.9753 18.363 16.9753C14.4778 16.9753 11.3281 20.125 11.3281 24.0103C11.3281 27.8955 14.4778 31.0452 18.363 31.0452Z" stroke="black" stroke-width="3.62625"/>
<path d="M41.7534 41.779C44.891 41.779 47.4345 39.2355 47.4345 36.0979C47.4345 32.9603 44.891 30.4167 41.7534 30.4167C38.6158 30.4167 36.0723 32.9603 36.0723 36.0979C36.0723 39.2355 38.6158 41.779 41.7534 41.779Z" stroke="black" stroke-width="3.62625"/>
<path d="M24.4199 20.4202L34.9723 16.3467" stroke="black" stroke-width="3.62625"/>
<path d="M46.6973 19.562L59.8485 33.9824" stroke="black" stroke-width="3.62625"/>
<path d="M60.561 44.4744L46.7812 56.9124" stroke="black" stroke-width="3.62625"/>
<path d="M22.2324 29.8848L37.4022 56.3322" stroke="black" stroke-width="3.62625"/>
<path d="M24.5879 54.7969L34.7293 59.4989" stroke="black" stroke-width="3.62625"/>
<path d="M20.998 44.9943L37.9568 20.4446" stroke="black" stroke-width="3.62625"/>
<path d="M24.8418 26.7661L36.7117 33.4747" stroke="black" stroke-width="3.62625"/>
<path d="M47.4453 36.7383L57.8285 37.524" stroke="black" stroke-width="3.62625"/>
<path d="M41.7539 41.7908L41.766 54.7969" stroke="black" stroke-width="3.62625"/>
</svg>
