<svg width="73" height="74" viewBox="0 0 73 74" fill="none" xmlns="http://www.w3.org/2000/svg">
<path d="M15.903 6.92852C13.5821 7.4472 11.8311 8.31285 10.4239 9.75761C6.91309 13.362 6.91309 19.1632 6.91309 30.7657V33.8423C6.91309 42.544 6.91309 46.8949 9.54619 49.5983C12.1793 52.3017 16.4172 52.3017 24.893 52.3017H48.8662C57.342 52.3017 61.5798 52.3017 64.213 49.5983C66.8462 46.8949 66.8462 42.544 66.8462 33.8423V30.7657C66.8462 19.1632 66.8462 13.362 63.3353 9.75761C59.8247 6.1532 54.1739 6.1532 42.8729 6.1532H30.8863C29.8399 6.1532 28.842 6.1532 27.8897 6.15606" stroke="#202F5A" stroke-width="3.66151" stroke-linecap="round"/>
<path d="M48.6763 67.6844H24.7031" stroke="#202F5A" stroke-width="3.66151" stroke-linecap="round"/>
<path d="M36.8799 52.3016V67.6845" stroke="#202F5A" stroke-width="3.66151" stroke-linecap="round"/>
<path d="M66.8462 39.9954H48.8662M6.91309 39.9954H36.8796" stroke="#202F5A" stroke-width="3.66151" stroke-linecap="round"/>
</svg>
