<svg width="91" height="91" viewBox="0 0 91 91" fill="none" xmlns="http://www.w3.org/2000/svg">
<path d="M49.7593 72.2249C49.1029 72.2249 48.5703 72.7573 48.5703 73.4137V75.2042H9.61623V24.2428H11.5361C12.1929 24.2428 12.725 23.7106 12.725 23.0538C12.725 22.3972 12.1927 21.865 11.5361 21.865H8.42726C7.77046 21.865 7.23828 22.3972 7.23828 23.0538V76.3935C7.23828 77.05 7.77063 77.5825 8.42726 77.5825H49.7593C50.4158 77.5825 50.9483 77.05 50.9483 76.3935V73.4139C50.9483 72.7575 50.4158 72.2249 49.7593 72.2249Z" fill="black"/>
<path d="M57.7987 59.5934C57.1421 59.5934 56.6097 60.1256 56.6097 60.7822V67.3909H17.6555V16.4295H36.2926C36.9494 16.4295 37.4815 15.8971 37.4815 15.2405C37.4815 14.5839 36.9492 14.0515 36.2926 14.0515H16.4663C15.8097 14.0515 15.2773 14.5839 15.2773 15.2405V68.5801C15.2773 69.2369 15.8097 69.769 16.4663 69.769H57.7985C58.455 69.769 58.9874 69.2369 58.9874 68.5801V60.7824C58.9875 60.1256 58.4552 59.5934 57.7987 59.5934Z" fill="black"/>
<path d="M57.8003 25.8875C57.1437 25.8875 56.6113 26.4198 56.6113 27.0764V42.8427C56.6113 43.4993 57.1437 44.0317 57.8003 44.0317C58.4568 44.0317 58.9891 43.4993 58.9891 42.8427V27.0764C58.9891 26.42 58.4568 25.8875 57.8003 25.8875Z" fill="black"/>
<path d="M23.021 63.1257H28.5532C29.2099 63.1257 29.7422 62.5933 29.7422 61.9367V49.7236C29.7422 49.067 29.2099 48.5347 28.5532 48.5347H23.021C22.3642 48.5347 21.832 49.067 21.832 49.7236V61.9367C21.832 62.5931 22.3642 63.1257 23.021 63.1257ZM24.21 50.9126H27.3641V60.7475H24.21V50.9126Z" fill="black"/>
<path d="M34.9253 52.519C34.2685 52.519 33.7363 53.0512 33.7363 53.7078V61.9366C33.7363 62.5932 34.2687 63.1256 34.9253 63.1256H40.4575C41.1142 63.1256 41.6465 62.5932 41.6465 61.9366V57.8643C41.6465 57.2077 41.1142 56.6754 40.4575 56.6754C39.8007 56.6754 39.2686 57.2077 39.2686 57.8643V60.7476H36.1145V53.708C36.1143 53.0512 35.5821 52.519 34.9253 52.519Z" fill="black"/>
<path d="M46.8296 58.7881C46.1732 58.7881 45.6406 59.3204 45.6406 59.9771V61.9366C45.6406 62.5932 46.1732 63.1255 46.8296 63.1255H52.362C53.0184 63.1255 53.551 62.5932 53.551 61.9366V59.9771C53.551 59.3204 53.0184 58.7881 52.362 58.7881C51.7054 58.7881 51.173 59.3204 51.173 59.9771V60.7476H48.0188V59.9771C48.0186 59.3204 47.486 58.7881 46.8296 58.7881Z" fill="black"/>
<path d="M50.4728 26.2801C50.0084 25.8159 49.2559 25.8157 48.7915 26.2803L40.7448 34.327C40.2804 34.7915 40.2804 35.5441 40.745 36.0085C41.209 36.4728 41.962 36.4729 42.4264 36.0083L49.6323 28.8025L51.0268 30.197L42.1619 39.0619C41.6975 39.5263 41.6975 40.2793 42.1619 40.7435C42.3941 40.9756 42.6985 41.0918 43.0029 41.0918C43.307 41.0918 43.6114 40.9756 43.8436 40.7435L53.5493 31.0379C53.7724 30.8149 53.8976 30.5124 53.8976 30.197C53.8976 29.8818 53.7723 29.5792 53.5493 29.3563L50.4728 26.2801Z" fill="black"/>
<path d="M23.7935 42.6962C24.0257 42.9281 24.33 43.0442 24.6344 43.0442C24.9387 43.0442 25.2431 42.9281 25.4753 42.6962L28.6143 39.557C29.0787 39.0926 29.0787 38.3398 28.6143 37.8754C28.1499 37.4111 27.3971 37.4111 26.9326 37.8754L24.6344 40.1738L23.2397 38.7791L28.6143 33.4047C29.0787 32.9402 29.0787 32.1874 28.6143 31.7232C28.1499 31.2589 27.3971 31.2589 26.9326 31.7232L20.7175 37.9384C20.253 38.4028 20.253 39.1556 20.7175 39.62L23.7935 42.6962Z" fill="black"/>
<path d="M82.1105 58.466L75.1803 51.5358C74.7159 51.0715 73.9634 51.0715 73.499 51.5358C73.0345 52.0002 73.0345 52.753 73.499 53.2174L80.4292 60.1477C80.8417 60.5603 81.069 61.1088 81.069 61.6923C81.069 62.2755 80.8417 62.824 80.4292 63.2368C79.5772 64.0888 78.192 64.0888 77.3399 63.2368L66.3836 52.2805C71.3324 48.2176 74.4954 42.0556 74.4954 35.1678C74.4954 22.9621 64.5657 13.0322 52.3602 13.0322C40.1545 13.0322 30.2246 22.9621 30.2246 35.1678C30.2246 47.3735 40.1545 57.3032 52.3602 57.3032C56.8158 57.3032 60.9647 55.9756 64.4414 53.7013L75.6586 64.9181C76.5202 65.7798 77.6662 66.2544 78.8846 66.2544C80.1031 66.2544 81.2491 65.7798 82.1105 64.9181C83.8896 63.1394 83.8896 60.2447 82.1105 58.466ZM52.3602 54.9252C41.4658 54.9252 32.6027 46.062 32.6027 35.1678C32.6027 24.2734 41.466 15.4104 52.3602 15.4104C63.2542 15.4104 72.1175 24.2734 72.1175 35.1678C72.1176 46.062 63.2544 54.9252 52.3602 54.9252Z" fill="black"/>
<path d="M52.3608 18.9299C43.4071 18.9299 36.123 26.2142 36.123 35.1677C36.123 44.1211 43.4071 51.4052 52.3608 51.4052C61.3143 51.4052 68.5982 44.1211 68.5982 35.1677C68.5982 26.2142 61.3143 18.9299 52.3608 18.9299ZM52.3608 49.0269C44.7185 49.0269 38.501 42.8096 38.501 35.1675C38.501 27.5253 44.7185 21.3079 52.3608 21.3079C60.0028 21.3079 66.2202 27.5253 66.2202 35.1675C66.2202 42.8096 60.0028 49.0269 52.3608 49.0269Z" fill="black"/>
<path d="M22.4072 24.1754V22.4346C22.4072 21.778 21.8749 21.2456 21.2183 21.2456C20.5615 21.2456 20.0293 21.778 20.0293 22.4346V24.1754C20.0293 24.8322 20.5617 25.3644 21.2183 25.3644C21.8749 25.3645 22.4072 24.8324 22.4072 24.1754Z" fill="black"/>
<path d="M26.2842 24.1752V20.448C26.2842 19.7914 25.7518 19.259 25.0952 19.259C24.4386 19.259 23.9062 19.7914 23.9062 20.448V24.1752C23.9062 24.832 24.4386 25.3642 25.0952 25.3642C25.7518 25.3643 26.2842 24.8322 26.2842 24.1752Z" fill="black"/>
<path d="M30.1612 24.1753V23.5689C30.1612 22.9122 29.6288 22.3799 28.9722 22.3799C28.3156 22.3799 27.7832 22.9122 27.7832 23.5689V24.1753C27.7832 24.8321 28.3156 25.3643 28.9722 25.3643C29.6288 25.3644 30.1612 24.8323 30.1612 24.1753Z" fill="black"/>
</svg>
