<svg width="49" height="39" viewBox="0 0 49 39" fill="none" xmlns="http://www.w3.org/2000/svg">
<path d="M37.2073 2.01177C38.7934 0.21936 41.5017 0.100109 43.385 1.57718C45.612 3.32385 45.8055 6.5813 44.1005 8.84039C43.5894 9.51761 43.1311 10.1772 42.7256 10.8192C41.461 12.7648 40.5855 14.6617 40.0991 16.51C39.787 17.5502 39.5584 18.6043 39.4132 19.6723C39.2664 20.7515 37.9326 21.3265 37.1243 20.5965C36.2703 19.8251 36.816 18.4069 37.9667 18.4069H45.0268C47.2211 18.4069 49 20.1858 49 22.3801V32.8888C49 36.0923 46.403 38.6893 43.1995 38.6893H34.3722C31.1687 38.6893 28.5717 36.0923 28.5717 32.8888V25.4109C28.5717 22.1035 28.9608 18.9419 29.739 15.9263C30.4199 13.008 31.5873 10.1383 33.241 7.31724C34.3026 5.5688 35.6247 3.80031 37.2073 2.01177ZM8.75358 2.01177C10.3397 0.219359 13.048 0.100109 14.9312 1.57718C17.1583 3.32385 17.3517 6.5813 15.6467 8.84039C15.1356 9.51761 14.6773 10.1772 14.2718 10.8192C13.0072 12.7648 12.1317 14.6617 11.6453 16.51C11.3333 17.5502 11.1046 18.6043 10.9594 19.6723C10.8127 20.7515 9.47886 21.3265 8.67056 20.5965C7.81657 19.8251 8.36223 18.4069 9.513 18.4069H16.573C18.7674 18.4069 20.5463 20.1858 20.5463 22.3801V32.8888C20.5463 36.0923 17.9493 38.6893 14.7457 38.6893H5.91845C2.71491 38.6893 0.117924 36.0923 0.117924 32.8888V25.4109C0.117924 22.1035 0.507038 18.9419 1.28526 15.9263C1.96621 13.008 3.13353 10.1383 4.78725 7.31724C5.84882 5.5688 7.17093 3.8003 8.75358 2.01177Z" fill="#202F5A"/>
</svg>
