<svg width="79" height="79" viewBox="0 0 79 79" fill="none" xmlns="http://www.w3.org/2000/svg">
<path fill-rule="evenodd" clip-rule="evenodd" d="M47.0931 10.5963C39.243 8.49293 31.2897 9.72479 24.7274 13.4271C23.5645 14.0831 22.09 13.6723 21.434 12.5095C20.7779 11.3466 21.1888 9.87209 22.3516 9.21605C29.9716 4.91706 39.2233 3.48206 48.3444 5.92612C66.8295 10.8792 77.7995 29.8795 72.8462 48.3645C67.8932 66.8497 48.893 77.8193 30.4079 72.8663C11.9229 67.9134 0.953055 48.9128 5.90609 30.4279C6.88685 26.7678 8.42038 23.398 10.3944 20.3873C12.2446 17.5654 15.9765 17.3469 18.34 19.2598L40.8972 37.517C41.9348 38.357 42.0953 39.8794 41.2553 40.917C40.4153 41.9549 38.8929 42.1154 37.8553 41.2754L24.834 30.7362C23.3217 33.2693 22.4537 36.2293 22.4537 39.3962C22.4537 48.7423 30.0302 56.3187 39.3761 56.3187C48.7221 56.3187 56.2986 48.7423 56.2986 39.3962C56.2986 30.0502 48.7221 22.4737 39.3761 22.4737C37.5021 22.4737 35.7038 22.7775 34.0247 23.3366C32.7581 23.7585 31.3892 23.0736 30.9673 21.8069C30.5454 20.5401 31.2303 19.1712 32.4971 18.7493C34.6623 18.0282 36.9763 17.6387 39.3761 17.6387C51.3924 17.6387 61.1336 27.3799 61.1336 39.3962C61.1336 51.4125 51.3924 61.1537 39.3761 61.1537C27.3599 61.1537 17.6187 51.4125 17.6187 39.3962C17.6187 35.0805 18.8773 31.0545 21.0461 27.6703L15.2982 23.0181C15.1182 22.8724 14.9156 22.8286 14.7549 22.8481C14.6084 22.8657 14.5093 22.9293 14.4378 23.0384C12.7423 25.6242 11.4223 28.5223 10.5763 31.6793C6.31442 47.5851 15.7536 63.9342 31.6593 68.196C47.565 72.4579 63.914 63.0187 68.1759 47.1132C72.4381 31.2074 62.9989 14.8583 47.0931 10.5963Z" fill="black"/>
</svg>
